<mxfile host="app.diagrams.net" agent="Mozilla/5.0 (Macintosh; Intel Mac OS X 10_15_7) AppleWebKit/537.36 (KHTML, like Gecko) Chrome/133.0.0.0 Safari/537.36" version="26.0.11">
  <diagram name="Page-1" id="g5aTQ4Kwlvj_jL84F30K">
    <mxGraphModel dx="1006" dy="568" grid="1" gridSize="10" guides="1" tooltips="1" connect="1" arrows="1" fold="1" page="1" pageScale="1" pageWidth="850" pageHeight="1100" math="0" shadow="0">
      <root>
        <mxCell id="0" />
        <mxCell id="1" parent="0" />
        <mxCell id="20_ddoJ4FDJulOC7Svip-5" style="edgeStyle=orthogonalEdgeStyle;rounded=0;orthogonalLoop=1;jettySize=auto;html=1;" edge="1" parent="1" source="20_ddoJ4FDJulOC7Svip-1" target="20_ddoJ4FDJulOC7Svip-2">
          <mxGeometry relative="1" as="geometry" />
        </mxCell>
        <mxCell id="20_ddoJ4FDJulOC7Svip-1" value="User" style="sketch=0;outlineConnect=0;fontColor=#232F3E;gradientColor=none;fillColor=#232F3D;strokeColor=none;dashed=0;verticalLabelPosition=bottom;verticalAlign=top;align=center;html=1;fontSize=12;fontStyle=0;aspect=fixed;pointerEvents=1;shape=mxgraph.aws4.user;" vertex="1" parent="1">
          <mxGeometry x="80" y="160" width="80" height="80" as="geometry" />
        </mxCell>
        <mxCell id="20_ddoJ4FDJulOC7Svip-6" style="edgeStyle=orthogonalEdgeStyle;rounded=0;orthogonalLoop=1;jettySize=auto;html=1;" edge="1" parent="1" source="20_ddoJ4FDJulOC7Svip-2" target="20_ddoJ4FDJulOC7Svip-4">
          <mxGeometry relative="1" as="geometry" />
        </mxCell>
        <mxCell id="20_ddoJ4FDJulOC7Svip-2" value="Streamlit&lt;div&gt;(Vocab Generator)&lt;/div&gt;" style="sketch=0;outlineConnect=0;fontColor=#232F3E;gradientColor=none;fillColor=#232F3D;strokeColor=none;dashed=0;verticalLabelPosition=bottom;verticalAlign=top;align=center;html=1;fontSize=12;fontStyle=0;aspect=fixed;pointerEvents=1;shape=mxgraph.aws4.management_console2;" vertex="1" parent="1">
          <mxGeometry x="240" y="165" width="79.13" height="70" as="geometry" />
        </mxCell>
        <mxCell id="20_ddoJ4FDJulOC7Svip-3" value="Ollama&lt;div&gt;(Model llama3.2:1b)&lt;/div&gt;" style="sketch=0;outlineConnect=0;fontColor=#232F3E;gradientColor=none;fillColor=#232F3D;strokeColor=none;dashed=0;verticalLabelPosition=bottom;verticalAlign=top;align=center;html=1;fontSize=12;fontStyle=0;aspect=fixed;pointerEvents=1;shape=mxgraph.aws4.generic_database;" vertex="1" parent="1">
          <mxGeometry x="560" y="160" width="60.51" height="80" as="geometry" />
        </mxCell>
        <mxCell id="20_ddoJ4FDJulOC7Svip-7" style="edgeStyle=orthogonalEdgeStyle;rounded=0;orthogonalLoop=1;jettySize=auto;html=1;" edge="1" parent="1" source="20_ddoJ4FDJulOC7Svip-4" target="20_ddoJ4FDJulOC7Svip-3">
          <mxGeometry relative="1" as="geometry" />
        </mxCell>
        <mxCell id="20_ddoJ4FDJulOC7Svip-4" value="Backend&lt;div&gt;(OPEA)&lt;/div&gt;" style="sketch=0;outlineConnect=0;fontColor=#232F3E;gradientColor=none;fillColor=#232F3D;strokeColor=none;dashed=0;verticalLabelPosition=bottom;verticalAlign=top;align=center;html=1;fontSize=12;fontStyle=0;aspect=fixed;pointerEvents=1;shape=mxgraph.aws4.servers;" vertex="1" parent="1">
          <mxGeometry x="400" y="160" width="79" height="79" as="geometry" />
        </mxCell>
      </root>
    </mxGraphModel>
  </diagram>
</mxfile>
